<?xml version="1.0" standalone="no"?><!DOCTYPE svg PUBLIC "-//W3C//DTD SVG 1.1//EN" "http://www.w3.org/Graphics/SVG/1.1/DTD/svg11.dtd"><svg t="1527841922947" class="icon" style="" viewBox="0 0 1024 1024" version="1.1" xmlns="http://www.w3.org/2000/svg" p-id="3497" xmlns:xlink="http://www.w3.org/1999/xlink" width="200" height="200"><defs><style type="text/css"></style></defs><path d="M0.00192 525a502.33 502.33 0 0 1 40.5-199q40.5-95 109-163.5t163.5-109a509.15 509.15 0 0 1 398 0q95 40.5 163.5 109t109 163.5a502.33 502.33 0 0 1 40.5 199q0 167-97.5 300.5T676.00192 1011q-8 0-12-3t-4.5-6a58.59 58.59 0 0 1-0.5-9 7.68 7.68 0 0 1-1-3V861q0-61-43-104 115-20 172-85.5t57-158.5q0-87-56-151 20-64-7-135-28-2-61 9.5t-49 21.5q-16 10-29 19-58-16-129.5-16t-128.5 16q-11-8-25.5-17.5t-50.5-23q-36-13.5-65-11.5-28 72-6 137-55 64-55 151 0 93 56 158t172 86a142.28 142.28 0 0 0-40 70q-85 21-119-30-63-92-113-66-7 7 2 14.5t27 20q18 12.51 27 27.5 1 2 5.5 14.5t9 24q4.5 11.5 17 25.5a116.29 116.29 0 0 0 29 23.5q16.5 9.51 45.5 14t66 0.5v100.5a41.4 41.4 0 0 1-0.5 5 8.78 8.78 0 0 1-2 5 21 21 0 0 1-4 3 12.53 12.53 0 0 1-6.5 1.5 63.61 63.61 0 0 1-10-1q-152-53-247.5-185.5T0.00192 525z" fill="#d81e06" p-id="3498"></path></svg>