<?xml version="1.0" standalone="no"?><!DOCTYPE svg PUBLIC "-//W3C//DTD SVG 1.1//EN" "http://www.w3.org/Graphics/SVG/1.1/DTD/svg11.dtd"><svg t="1527841288810" class="icon" style="" viewBox="0 0 1024 1024" version="1.1" xmlns="http://www.w3.org/2000/svg" p-id="9696" xmlns:xlink="http://www.w3.org/1999/xlink" width="200" height="200"><defs><style type="text/css"></style></defs><path d="M941.866665 0 87.466666 0C40.8 0 0 33.6 0 79.733334L0 936C0 982.4 40.8 1023.733332 87.466666 1023.733332L941.599997 1023.733332C988.533332 1023.733332 1023.733332 982.133332 1023.733332 936L1023.733332 79.733334C1024 33.6 988.533332 0 941.866665 0L941.866665 0ZM317.333334 853.333335 170.666666 853.333335 170.666666 397.333334 317.333334 397.333334 317.333334 853.333335 317.333334 853.333335ZM249.066666 328 248 328C201.066666 328 170.666666 293.066666 170.666666 249.333334 170.666666 204.8 201.866666 170.666666 249.866666 170.666666 297.866666 170.666666 327.2 204.533334 328.266666 249.333334 328.266666 293.066666 297.866666 328 249.066666 328L249.066666 328ZM853.333335 853.333335 706.666665 853.333335 706.666665 603.999997C706.666665 544.266666 685.333335 503.466666 632.266668 503.466666 591.733334 503.466666 567.733334 530.933334 557.066666 557.6 553.066666 567.2 552 580.266666 552 593.6L552 853.333335 405.333334 853.333335 405.333334 397.333334 552 397.333334 552 460.8C573.333334 430.4 606.666668 386.666666 684.266665 386.666666 780.533332 386.666666 853.333335 450.133334 853.333335 586.933334L853.333335 853.333335 853.333335 853.333335Z" p-id="9697" fill="#d81e06"></path></svg>